<mxfile host="Electron" modified="2024-05-20T13:25:53.444Z" agent="Mozilla/5.0 (Windows NT 10.0; Win64; x64) AppleWebKit/537.36 (KHTML, like Gecko) draw.io/24.2.5 Chrome/120.0.6099.109 Electron/28.1.0 Safari/537.36" etag="PfevfqTIPrjKmS6O2Di9" version="24.2.5" type="device">
  <diagram name="Página-1" id="wS2xyDTOjGRvFbrV8SyL">
    <mxGraphModel dx="989" dy="577" grid="1" gridSize="10" guides="1" tooltips="1" connect="1" arrows="1" fold="1" page="1" pageScale="1" pageWidth="827" pageHeight="1169" math="0" shadow="0">
      <root>
        <mxCell id="0" />
        <mxCell id="1" parent="0" />
        <mxCell id="roJTmz2R9Fx_UoObYIFT-1" value="&lt;font style=&quot;font-size: 14px;&quot;&gt;VCO&lt;/font&gt;" style="rounded=0;whiteSpace=wrap;html=1;" vertex="1" parent="1">
          <mxGeometry x="230" y="350" width="80" height="60" as="geometry" />
        </mxCell>
        <mxCell id="roJTmz2R9Fx_UoObYIFT-2" value="" style="endArrow=classic;html=1;rounded=0;" edge="1" parent="1">
          <mxGeometry width="50" height="50" relative="1" as="geometry">
            <mxPoint x="170" y="379.5" as="sourcePoint" />
            <mxPoint x="230" y="379.5" as="targetPoint" />
          </mxGeometry>
        </mxCell>
        <mxCell id="roJTmz2R9Fx_UoObYIFT-3" value="&lt;font style=&quot;font-size: 18px;&quot;&gt;V(t)&lt;/font&gt;" style="text;html=1;align=center;verticalAlign=middle;whiteSpace=wrap;rounded=0;" vertex="1" parent="1">
          <mxGeometry x="130" y="365" width="40" height="30" as="geometry" />
        </mxCell>
        <mxCell id="roJTmz2R9Fx_UoObYIFT-4" value="&lt;font style=&quot;font-size: 14px;&quot;&gt;Sample&lt;/font&gt;&lt;div&gt;&lt;font style=&quot;font-size: 14px;&quot;&gt;(Ts)&lt;/font&gt;&lt;/div&gt;" style="rounded=0;whiteSpace=wrap;html=1;" vertex="1" parent="1">
          <mxGeometry x="374" y="350" width="80" height="60" as="geometry" />
        </mxCell>
        <mxCell id="roJTmz2R9Fx_UoObYIFT-5" value="" style="endArrow=classic;html=1;rounded=0;exitX=1;exitY=0.5;exitDx=0;exitDy=0;entryX=0;entryY=0.5;entryDx=0;entryDy=0;" edge="1" parent="1" source="roJTmz2R9Fx_UoObYIFT-1" target="roJTmz2R9Fx_UoObYIFT-4">
          <mxGeometry width="50" height="50" relative="1" as="geometry">
            <mxPoint x="430" y="360" as="sourcePoint" />
            <mxPoint x="480" y="310" as="targetPoint" />
          </mxGeometry>
        </mxCell>
        <mxCell id="roJTmz2R9Fx_UoObYIFT-6" value="&lt;font style=&quot;font-size: 18px;&quot;&gt;Φ(t)&lt;/font&gt;" style="text;html=1;align=center;verticalAlign=middle;whiteSpace=wrap;rounded=0;" vertex="1" parent="1">
          <mxGeometry x="321" y="343" width="40" height="30" as="geometry" />
        </mxCell>
        <mxCell id="roJTmz2R9Fx_UoObYIFT-10" value="&lt;span style=&quot;font-size: 14px;&quot;&gt;First order difference&lt;/span&gt;" style="rounded=0;whiteSpace=wrap;html=1;" vertex="1" parent="1">
          <mxGeometry x="540" y="350" width="80" height="60" as="geometry" />
        </mxCell>
        <mxCell id="roJTmz2R9Fx_UoObYIFT-11" value="" style="endArrow=classic;html=1;rounded=0;entryX=0;entryY=0.493;entryDx=0;entryDy=0;exitX=1;exitY=0.5;exitDx=0;exitDy=0;entryPerimeter=0;" edge="1" parent="1" source="roJTmz2R9Fx_UoObYIFT-4" target="roJTmz2R9Fx_UoObYIFT-10">
          <mxGeometry width="50" height="50" relative="1" as="geometry">
            <mxPoint x="460" y="380" as="sourcePoint" />
            <mxPoint x="510" y="379.58" as="targetPoint" />
          </mxGeometry>
        </mxCell>
        <mxCell id="roJTmz2R9Fx_UoObYIFT-13" value="&lt;font style=&quot;font-size: 18px;&quot;&gt;Φ(n*Ts)&lt;/font&gt;" style="text;html=1;align=center;verticalAlign=middle;whiteSpace=wrap;rounded=0;" vertex="1" parent="1">
          <mxGeometry x="460" y="343" width="70" height="30" as="geometry" />
        </mxCell>
        <mxCell id="roJTmz2R9Fx_UoObYIFT-14" value="" style="endArrow=classic;html=1;rounded=0;exitX=1;exitY=0.5;exitDx=0;exitDy=0;" edge="1" parent="1">
          <mxGeometry width="50" height="50" relative="1" as="geometry">
            <mxPoint x="620" y="379.66" as="sourcePoint" />
            <mxPoint x="660" y="380" as="targetPoint" />
          </mxGeometry>
        </mxCell>
        <mxCell id="roJTmz2R9Fx_UoObYIFT-15" value="&lt;font style=&quot;font-size: 18px;&quot;&gt;out(n*Ts)&lt;/font&gt;" style="text;html=1;align=center;verticalAlign=middle;whiteSpace=wrap;rounded=0;" vertex="1" parent="1">
          <mxGeometry x="670" y="365" width="90" height="30" as="geometry" />
        </mxCell>
      </root>
    </mxGraphModel>
  </diagram>
</mxfile>
